<?xml version="1.0" encoding="utf-8"?>
<!-- Generator: Adobe Illustrator 23.0.0, SVG Export Plug-In . SVG Version: 6.00 Build 0)  -->
<svg version="1.1" id="Isolation_Mode" xmlns="http://www.w3.org/2000/svg" xmlns:xlink="http://www.w3.org/1999/xlink" x="0px"
	 y="0px" viewBox="0 0 122 105" style="enable-background:new 0 0 122 105;" xml:space="preserve">
<style type="text/css">
	.st0{fill:#D02529;}
	.st1{fill:#FFFFFF;}
	.st2{fill:#A0131A;}
</style>
<g>
	<path class="st0" d="M95,34.1c-0.8,0-1.6,0-2.4,0.1C88.9,20.1,76,9.6,60.6,9.6S32.4,20.1,28.7,34.3c-0.8-0.1-1.6-0.1-2.4-0.1
		c-12.8,0-23.2,10.4-23.2,23.2c0,12.8,10.4,23.2,23.2,23.2v13.9c0,0,0.1,4.4,7.9,4.4h52.9c7.8,0,7.9-4.4,7.9-4.4V80.5
		c12.8,0,23.2-10.4,23.2-23.2C118.2,44.5,107.8,34.1,95,34.1z"/>
	<path class="st1 rotate-anim" d="M78.8,55.4c-2.9,3.4-4.5,7.7-4.4,12.2l0.8,31.2h-4.4l0.8-31.2c0.1-4.5-1.5-8.8-4.4-12.2c-2.4-2.9-4-7.5-4-12.7
		C63.1,34,67.5,27,73,27c5.4,0,9.8,7.1,9.8,15.8C82.8,47.9,81.2,52.5,78.8,55.4z"/>
	<path class="st1 rotate-anim2" d="M54.5,28.2v22.6c0,2.3-1,4.3-2.5,5.8c-2.7,2.6-4.2,6.1-4.1,9.9l0.8,32.3h-4.4l0.8-32.3
		c0.1-3.7-1.4-7.3-4.1-9.9c-1.5-1.5-2.5-3.5-2.5-5.8V28.2c0-0.7,0.6-1.2,1.3-1.2c0.7,0,1.2,0.6,1.2,1.3v17.5c0,0.6,0.5,1,1,1
		c0.6,0,1-0.5,1-1V28.2c0-0.7,0.6-1.2,1.3-1.2c0.7,0,1.2,0.6,1.2,1.3v17.5c0,0.6,0.5,1,1,1c0.6,0,1-0.5,1-1V28.2
		c0-0.7,0.6-1.2,1.3-1.2c0.7,0,1.2,0.6,1.2,1.3v17.5c0,0.6,0.5,1,1,1c0.6,0,1-0.5,1-1V28.3c0-0.7,0.5-1.3,1.2-1.3
		C53.9,27,54.5,27.5,54.5,28.2z"/>
	<path class="st2 rotate-anim" d="M83.1,59.8c-2.9,3.4-4.5,7.7-4.4,12.2l0.7,26.8h-4.2L75.9,72c0.1-2.5-0.4-4.9-1.3-7.1c0.5-3.5,2-6.7,4.2-9.4
		c2.4-2.9,4-7.5,4-12.7c0-4.1-1-7.9-2.6-10.7c4,2,7,8,7,15.1C87.2,52.3,85.6,56.9,83.1,59.8z"/>
	<g>
		<path class="st2 rotate-anim2" d="M47.5,45.8V32c-0.1,0.2-0.2,0.4-0.2,0.6v13.8C47.4,46.2,47.5,46,47.5,45.8z"/>
		<path class="st2 rotate-anim2" d="M52,45.8V32c-0.1,0.2-0.2,0.4-0.2,0.6v13.8C52,46.2,52,46,52,45.8z"/>
		<path class="st2 rotate-anim2" d="M43,45.8V32c-0.1,0.2-0.2,0.4-0.2,0.6v13.8C42.9,46.2,43,46,43,45.8z"/>
		<path class="st2 rotate-anim2" d="M58.8,32.6v22.6c0,2.3-1,4.3-2.5,5.8c-2.7,2.6-4.2,6.1-4.1,9.9l0.7,28h-4.2l0.7-28c0.1-2.2-0.5-4.4-1.4-6.3
			c0.4-3,1.8-5.8,4-7.9c1.5-1.5,2.5-3.5,2.5-5.8v-0.1c0.2,0.3,0.5,0.5,0.9,0.5c0.6,0,1-0.5,1-1V32.6c0-0.7,0.5-1.3,1.2-1.3
			C58.2,31.3,58.8,31.9,58.8,32.6z"/>
	</g>
</g>

<style>
	.rotate-anim{ animation: rotateitem 1.5s infinite; animation-delay: 0.8s;}
	@keyframes rotateitem {
	  0% {
	   opacity:0;
	  }
	  50%{
	  	opacity:1;	
	  }
	  100% {
	    opacity:0;
	  }
	}

	.rotate-anim2{ animation: rotateitem 1.5s infinite;}
	@keyframes rotateitem {
	  0% {
	   opacity:1;
	  }
	  50%{
	  	opacity:0;	
	  }
	  100% {
	    opacity:1;
	  }
	}
</style>
</svg>
